<?xml version="1.0" encoding="UTF-8"?>
<svg version="1.1" xmlns="http://www.w3.org/2000/svg" width="494" height="505">
<path d="M0 0 C22.14742705 20.48665009 40.60807435 44.47545137 53.37011719 71.90844727 C54.3226238 73.94718925 55.30582167 75.96932676 56.29003906 77.99291992 C81.08596743 130.09020485 83.4864694 192.23146949 66.30566406 246.91088867 C66.04946289 247.74104492 65.79326172 248.57120117 65.52929688 249.42651367 C57.05176282 276.48654709 43.40685605 302.05976127 25.30566406 323.91088867 C24.85932617 324.45729004 24.41298828 325.00369141 23.953125 325.56665039 C12.99491287 338.94267514 0.99926157 351.31959248 -12.69433594 361.91088867 C-13.63921875 362.68432617 -14.58410156 363.45776367 -15.55761719 364.25463867 C-61.61077784 401.23760886 -124.92738215 418.15047615 -183.38183594 412.22338867 C-229.08195251 406.88928988 -274.37779416 389.82066346 -309.69433594 359.91088867 C-310.67144531 359.11682617 -311.64855469 358.32276367 -312.65527344 357.50463867 C-353.42139093 324.14258363 -381.5454382 276.14684989 -392.44433594 224.72338867 C-392.64309326 223.78664307 -392.84185059 222.84989746 -393.04663086 221.88476562 C-396.07896416 206.82188065 -397.07129987 192.16961166 -397.00683594 176.84838867 C-397.00501312 175.94703186 -397.00319031 175.04567505 -397.00131226 174.11700439 C-396.95392286 160.17464156 -396.31384199 146.63533152 -393.69433594 132.91088867 C-393.45287842 131.54287109 -393.45287842 131.54287109 -393.20654297 130.1472168 C-385.63494194 87.75788845 -365.00281285 47.37356698 -335.69433594 15.91088867 C-334.48095375 14.51944201 -333.27235791 13.12380228 -332.06933594 11.72338867 C-326.37910381 5.22768989 -320.30177815 -0.36979454 -313.56152344 -5.77661133 C-311.73335792 -7.25109904 -309.9236701 -8.74900868 -308.13964844 -10.27661133 C-273.89755178 -39.41882125 -229.01627177 -56.20233379 -184.69433594 -61.08911133 C-183.73011719 -61.1999707 -182.76589844 -61.31083008 -181.77246094 -61.42504883 C-115.59525486 -67.76845977 -49.01114617 -44.55051147 0 0 Z " fill="#FDFDFD" transform="translate(405.6943359375,77.089111328125)"/>
<path d="M0 0 C0.77794922 -0.01611328 1.55589844 -0.03222656 2.35742188 -0.04882812 C8.01755535 -0.05354884 12.08954112 1.16786141 17.3125 3.3125 C18.3025 3.3125 19.2925 3.3125 20.3125 3.3125 C20.70953125 2.82394531 21.1065625 2.33539063 21.515625 1.83203125 C24.35441048 -0.56859387 27.52258347 -0.08074627 31.0625 0 C31.7534375 -0.00322266 32.444375 -0.00644531 33.15625 -0.00976562 C37.84022058 0.03865888 41.82962007 0.8401011 46.3125 2.3125 C47.446875 2.68375 48.58125 3.055 49.75 3.4375 C50.595625 3.72625 51.44125 4.015 52.3125 4.3125 C52.6425 3.3225 52.9725 2.3325 53.3125 1.3125 C58.91935985 -1.49092992 67.74280631 -0.37671264 73.69140625 1.21875 C85.8399968 6.05956769 93.12360835 13.05847941 99.03125 24.69921875 C100.87787664 29.80999952 100.31619893 34.8742165 100.1171875 40.22802734 C99.33686112 51.34165238 99.33686112 51.34165238 102.77197266 61.45263672 C106.48303903 64.56339801 110.79621327 66.06875158 115.34960938 67.56445312 C122.30397497 70.2147238 127.32954201 76.74999242 130.3125 83.3125 C132.2028474 88.51095534 132.93921324 92.85114181 132.3125 98.3125 C130.18475553 101.07856781 128.52065456 102.06231578 125.10546875 102.76953125 C119.20064296 103.46695162 113.25027135 103.426202 107.3125 103.3125 C107.3125 103.9725 107.3125 104.6325 107.3125 105.3125 C108.34117187 105.64701172 108.34117187 105.64701172 109.390625 105.98828125 C113.09145569 107.66552938 115.92602017 109.946902 119.0625 112.5 C120.30689436 113.50049437 121.55168597 114.50049484 122.796875 115.5 C123.39822266 115.9846875 123.99957031 116.469375 124.61914062 116.96875 C126.80723724 118.70509426 129.06160816 120.34628355 131.3125 122 C136.36308586 125.91985768 141.23075781 130.79903107 142.3125 137.3125 C143.04295795 146.27626259 143.33754479 154.10578783 137.3125 161.3125 C131.12067321 168.04561656 125.0250642 171.3421977 115.875 171.75 C110.35176633 171.61886177 106.10454748 169.96291638 101.3125 167.3125 C101.3125 166.6525 101.3125 165.9925 101.3125 165.3125 C100.6525 165.3125 99.9925 165.3125 99.3125 165.3125 C99.35890625 165.9209375 99.4053125 166.529375 99.453125 167.15625 C100.50091633 192.60261087 86.41910487 218.29779432 69.8125 236.5625 C57.65010336 249.6141236 39.67908167 264.07267297 21.3125 266.3125 C21.47515854 266.86468201 21.63781708 267.41686401 21.80540466 267.98577881 C22.36943487 270.57373603 22.43245437 272.89129961 22.42602539 275.54003906 C22.42594986 276.58081604 22.42587433 277.62159302 22.42579651 278.69390869 C22.42063522 279.81070007 22.41547394 280.92749146 22.41015625 282.078125 C22.40803383 283.80092682 22.40803383 283.80092682 22.40586853 285.55853271 C22.40027143 289.22654831 22.38771944 292.89450285 22.375 296.5625 C22.36998463 299.04947829 22.36542178 301.53645753 22.36132812 304.0234375 C22.35030295 310.1198125 22.33356769 316.21615189 22.3125 322.3125 C23.08980469 322.58707031 23.86710938 322.86164063 24.66796875 323.14453125 C28.38171413 324.78472308 29.48707725 326.72926275 31.3125 330.3125 C31.8125 336.3125 31.8125 336.3125 30.3125 339.3125 C30.89687836 339.30805878 31.48125671 339.30361755 32.08334351 339.29904175 C38.14993858 339.25489238 44.21648823 339.22466866 50.28320312 339.20263672 C52.54917249 339.19256141 54.81512881 339.17890082 57.08105469 339.16162109 C60.33271501 339.13743989 63.58420387 339.12603237 66.8359375 339.1171875 C68.36255508 339.10170364 68.36255508 339.10170364 69.92001343 339.08590698 C71.33124985 339.08568039 71.33124985 339.08568039 72.77099609 339.08544922 C73.60150482 339.081008 74.43201355 339.07656677 75.28768921 339.07199097 C77.3125 339.3125 77.3125 339.3125 79.3125 341.3125 C79.625 344.3125 79.625 344.3125 79.3125 347.3125 C75.72129563 349.70663625 73.16297408 349.59281342 69.01780701 349.56646729 C68.26936478 349.56958727 67.52092256 349.57270725 66.74980026 349.57592177 C64.23473207 349.58391733 61.7199041 349.57757215 59.20483398 349.57128906 C57.40470233 349.57399821 55.60457179 349.57755871 53.80444336 349.58190918 C48.90998718 349.59104385 44.0156151 349.58748466 39.12115741 349.58115101 C34.00647421 349.57609737 28.89179834 349.58078061 23.77711487 349.58392334 C15.18806664 349.58756451 6.59905278 349.58275957 -1.98999023 349.57324219 C-11.93126063 349.56235389 -21.87244901 349.56588534 -31.81371742 349.576895 C-40.33858652 349.58595944 -48.86343087 349.5872574 -57.38830322 349.58201766 C-62.48450976 349.57889375 -67.5806777 349.57850018 -72.67688179 349.58509064 C-77.46619396 349.59085135 -82.25539997 349.58689068 -87.04470062 349.57530212 C-88.80638642 349.57264884 -90.5680811 349.57343195 -92.32976341 349.57782745 C-94.72656139 349.58325804 -97.12301488 349.57647943 -99.51979065 349.56646729 C-100.22396215 349.57092873 -100.92813364 349.57539017 -101.65364367 349.57998681 C-106.45919957 349.54080043 -106.45919957 349.54080043 -108.6875 347.3125 C-108.9375 344.3125 -108.9375 344.3125 -108.6875 341.3125 C-106.6875 339.3125 -106.6875 339.3125 -104.73861694 339.07199097 C-103.943638 339.07643219 -103.14865906 339.08087341 -102.32958984 339.08544922 C-101.42880707 339.08560028 -100.52802429 339.08575134 -99.59994507 339.08590698 C-98.62594757 339.09622955 -97.65195007 339.10655212 -96.6484375 339.1171875 C-95.65244537 339.1200174 -94.65645325 339.12284729 -93.63027954 339.12576294 C-90.44089882 339.1369816 -87.25179622 339.16208919 -84.0625 339.1875 C-81.90364988 339.19752762 -79.74479537 339.20665385 -77.5859375 339.21484375 C-72.28636301 339.23692639 -66.98695137 339.27042042 -61.6875 339.3125 C-61.73753174 338.18557739 -61.73753174 338.18557739 -61.78857422 337.03588867 C-61.8145166 336.0482251 -61.84045898 335.06056152 -61.8671875 334.04296875 C-61.91721924 332.57573364 -61.91721924 332.57573364 -61.96826172 331.07885742 C-61.64747357 327.91811785 -61.02427625 326.8484312 -58.8125 324.625 C-55.6875 322.3125 -55.6875 322.3125 -53.6875 322.3125 C-53.6875 315.0525 -53.6875 307.7925 -53.6875 300.3125 C-55.0075 299.9825 -56.3275 299.6525 -57.6875 299.3125 C-61.28057039 296.14717608 -64.24533256 293.23670066 -64.98046875 288.375 C-64.57523092 280.45034902 -59.56699424 275.13832039 -54.6875 269.3125 C-55.739375 269.23 -56.79125 269.1475 -57.875 269.0625 C-91.58547079 264.65782176 -121.2302773 241.32314811 -142.6875 216.3125 C-143.88714696 214.69644665 -145.07602016 213.07229436 -146.25 211.4375 C-149.34422911 207.31186119 -152.79963723 205.23440572 -157.265625 202.7578125 C-166.73569063 197.10632172 -172.49411711 186.64651199 -176 176.46484375 C-177.3673186 170.19537722 -177.3341157 163.68091273 -176.6875 157.3125 C-174.6875 155.3125 -174.6875 155.3125 -172.0859375 155.1171875 C-171.08820313 155.14039063 -170.09046875 155.16359375 -169.0625 155.1875 C-168.05960938 155.20554688 -167.05671875 155.22359375 -166.0234375 155.2421875 C-165.25257813 155.26539063 -164.48171875 155.28859375 -163.6875 155.3125 C-164.14640625 154.69503906 -164.6053125 154.07757813 -165.078125 153.44140625 C-169.04810276 147.96183611 -172.31395629 142.6569486 -174.6875 136.3125 C-175.04714844 135.405 -175.40679687 134.4975 -175.77734375 133.5625 C-176.8785454 129.63031213 -176.98209449 126.12059874 -176.9375 122.0625 C-176.94523437 121.34320313 -176.95296875 120.62390625 -176.9609375 119.8828125 C-176.94102444 114.56602444 -176.94102444 114.56602444 -174.6875 112.3125 C-172.3046875 111.8984375 -172.3046875 111.8984375 -169.5625 111.6875 C-168.19738281 111.57535156 -168.19738281 111.57535156 -166.8046875 111.4609375 C-166.10601562 111.41195312 -165.40734375 111.36296875 -164.6875 111.3125 C-165.14640625 110.69503906 -165.6053125 110.07757813 -166.078125 109.44140625 C-173.25708619 99.53262998 -176.77858954 91.48028799 -176.9375 79.125 C-176.96328125 77.91457031 -176.9890625 76.70414062 -177.015625 75.45703125 C-176.6875 72.3125 -176.6875 72.3125 -175.61328125 70.40234375 C-172.6265301 68.71207282 -170.02464744 68.99333118 -166.625 69.0625 C-165.61409302 69.08219849 -165.61409302 69.08219849 -164.58276367 69.10229492 C-154.81786575 69.34143052 -146.11326534 70.78693608 -136.6875 73.3125 C-135.48609375 73.60125 -134.2846875 73.89 -133.046875 74.1875 C-124.36127899 76.33209161 -116.67401294 79.3144497 -108.6875 83.3125 C-107.52089844 83.86035156 -106.35429687 84.40820312 -105.15234375 84.97265625 C-93.10539116 90.72740292 -83.36492024 98.18098552 -73.6875 107.3125 C-73.02621094 107.9209375 -72.36492187 108.529375 -71.68359375 109.15625 C-68.5692349 112.11589987 -66.55567126 114.53453079 -64.7980957 118.46484375 C-63.07188081 121.25765088 -62.23994755 122.15796423 -59.04037476 123.05297852 C-55.58161661 123.33767366 -52.20061059 123.3676827 -48.73046875 123.3125 C-46.84331902 123.3288147 -46.84331902 123.3288147 -44.91804504 123.34545898 C-41.58439601 123.36719435 -38.25448255 123.35465506 -34.92114258 123.32537842 C-31.51566142 123.30394433 -28.11052405 123.32773575 -24.70507812 123.34765625 C-18.03208822 123.37752846 -11.36034597 123.36220783 -4.6875 123.3125 C-4.55866928 122.70523071 -4.42983856 122.09796143 -4.29710388 121.47229004 C-4.12356888 120.66996948 -3.95003387 119.86764893 -3.77124023 119.04101562 C-3.51611916 117.85167419 -3.51611916 117.85167419 -3.25584412 116.63830566 C-2.42221867 113.22690274 -1.10256438 110.04218989 0.25 106.8125 C3.95773311 97.62671168 7.11253152 88.26653703 10.25 78.875 C10.62631058 77.75689941 10.62631058 77.75689941 11.01022339 76.61621094 C11.72944711 74.47629583 12.44205897 72.33430281 13.15234375 70.19140625 C13.56863037 68.9391626 13.98491699 67.68691895 14.41381836 66.39672852 C15.45237305 63.36787805 15.45237305 63.36787805 15.3125 60.3125 C13.51379922 58.6750346 13.51379922 58.6750346 11.1875 57.125 C0.67850935 49.29282772 -2.94342408 39.11438462 -6.25 26.8125 C-6.85416133 24.59339364 -7.45959022 22.37463191 -8.06640625 20.15625 C-8.3301001 19.17849609 -8.59379395 18.20074219 -8.86547852 17.19335938 C-9.44496361 15.16249389 -10.08567647 13.14861336 -10.76928711 11.15039062 C-11.79112209 7.9922386 -12.06217902 5.60967539 -11.6875 2.3125 C-7.79888407 -0.27991062 -4.5083145 -0.01822277 0 0 Z " fill="#030202" transform="translate(262.6875,77.6875)"/>
<path d="M0 0 C1.21291466 -0.01029488 1.21291466 -0.01029488 2.45033264 -0.02079773 C5.13129123 -0.03913645 7.8116677 -0.035214 10.49267578 -0.02954102 C12.36296783 -0.03410358 14.2332582 -0.03940938 16.10354614 -0.04542542 C20.03280418 -0.05437346 23.96185925 -0.05191903 27.89111328 -0.04199219 C32.89529297 -0.03057473 37.89875941 -0.05059346 42.90284538 -0.07990932 C46.77225111 -0.09838883 50.64149025 -0.09795437 54.51092911 -0.0922718 C56.35347612 -0.09211962 58.19603517 -0.0980778 60.03853989 -0.11056328 C76.90859407 -0.20866363 92.10979071 2.2971792 105.07470703 14.11889648 C114.4760915 24.92402402 118.05347235 37.24220859 117.26269531 51.41333008 C116.4509256 59.5052252 112.88979956 66.95931589 108.06298828 73.40405273 C107.56025391 74.08209961 107.05751953 74.76014648 106.53955078 75.45874023 C99.51822913 84.19418736 89.8583642 88.89382798 79.06298828 91.40405273 C73.1693646 91.96954394 67.31534259 91.99309889 61.39892578 91.97045898 C59.71367045 91.97570734 58.02841806 91.9819882 56.34317017 91.98924255 C52.83166559 91.9995853 49.32056786 91.9951718 45.80908203 91.98046875 C41.33265257 91.96324897 36.85750301 91.98684705 32.38121605 92.02195835 C28.90823027 92.04401974 25.43554704 92.04247057 21.96251297 92.03419304 C20.31285824 92.03337909 18.66318004 92.0401349 17.01359177 92.05496407 C7.7011675 92.12589844 0.05403815 91.78750312 -7.93701172 86.40405273 C-8.84451172 85.82655273 -9.75201172 85.24905273 -10.68701172 84.65405273 C-17.00741678 78.33364767 -21.91466729 70.1642506 -22.31201172 61.09155273 C-21.93701172 57.40405273 -21.93701172 57.40405273 -20.74951172 55.40405273 C-18.37705493 54.09511106 -16.60349992 54.18785099 -13.93701172 54.40405273 C-14.26314453 53.91936523 -14.58927734 53.43467773 -14.92529297 52.93530273 C-19.68933306 45.62763061 -22.83958675 39.27937391 -21.93701172 30.40405273 C-20.89404297 28.68530273 -20.89404297 28.68530273 -18.93701172 27.40405273 C-16.28704846 27.18684263 -13.88624614 27.1205372 -11.24951172 27.21655273 C-10.54761719 27.23008789 -9.84572266 27.24362305 -9.12255859 27.25756836 C-7.39371343 27.29285091 -5.66526406 27.3466569 -3.93701172 27.40405273 C-4.44232422 26.50944336 -4.94763672 25.61483398 -5.46826172 24.69311523 C-12.97469593 10.91985898 -12.97469593 10.91985898 -10.93701172 3.40405273 C-8.31463203 -0.63710833 -4.34280661 -0.02560202 0 0 Z " fill="#FCFCFC" transform="translate(197.93701171875,226.595947265625)"/>
<path d="M0 0 C7.81367084 0.19895921 13.32350507 2.23782404 18.84375 7.88671875 C19.4315625 8.52222656 20.019375 9.15773438 20.625 9.8125 C23.12376123 12.45453882 23.61481589 12.94293569 27.375 13.5 C29.91661824 13.27081843 29.91661824 13.27081843 31 12 C30.90997602 9.97591245 30.75358962 7.95455713 30.5625 5.9375 C30.46066406 4.83277344 30.35882813 3.72804688 30.25390625 2.58984375 C30.12822266 1.30787109 30.12822266 1.30787109 30 0 C36.51646787 -0.69324126 40.73034999 1.17496094 46 5 C47.42589759 6.40768357 48.82239197 7.84579042 50.1875 9.3125 C53.17087692 12.56209291 53.17087692 12.56209291 57.5 13.5 C58.325 13.335 59.15 13.17 60 13 C61.0161692 8.37078475 60.83796731 4.65537393 60 0 C67.24896588 0.30204024 71.46151497 3.52406394 76.546875 8.51953125 C81.2841922 13.8002466 82.26643877 18.94450009 82.125 25.875 C82.10695313 27.02742188 82.08890625 28.17984375 82.0703125 29.3671875 C82.04710937 30.23601562 82.02390625 31.10484375 82 32 C81.2575 31.46375 80.515 30.9275 79.75 30.375 C69.80637694 23.761664 59.13232842 18.65196351 47 20 C38.81422252 21.73160677 32.18274103 24.31421688 26 30 C25.22849609 30.70576172 25.22849609 30.70576172 24.44140625 31.42578125 C22.61639633 33.17841118 21.13766904 34.72466191 20 37 C17.03824877 36.38722388 15.61941217 35.74627478 13 34 C13 33.34 13 32.68 13 32 C12.01 31.67 11.02 31.34 10 31 C6.18079538 25.56687342 4.18587593 18.96349226 2.1875 12.6875 C1.96852051 12.0061499 1.74954102 11.3247998 1.52392578 10.62280273 C0.41514432 6.98866204 -0.25741418 3.80237519 0 0 Z " fill="#BF262C" transform="translate(267,89)"/>
<path d="M0 0 C3.47085917 1.67257006 6.36353227 3.66428503 9.4375 6 C10.48808594 6.79792969 11.53867187 7.59585938 12.62109375 8.41796875 C13.44649658 9.04904541 13.44649658 9.04904541 14.28857422 9.69287109 C16.03358497 11.02565106 17.78406241 12.35100714 19.53515625 13.67578125 C20.69039299 14.55430784 21.84534822 15.43320474 23 16.3125 C23.53939209 16.72048828 24.07878418 17.12847656 24.63452148 17.54882812 C32.44975979 23.53465441 32.44975979 23.53465441 33.73046875 26.9453125 C34.46010965 32.50750256 34.8669754 37.26604919 32.3125 42.375 C28.6568859 46.524616 25.43388389 49.69266444 19.73046875 50.203125 C14.41965829 50.30102012 10.41471023 50.28536575 6 47 C1.20761985 40.74906937 -0.15001493 35.66330658 -0.09765625 27.83203125 C-0.0962413 27.03721848 -0.09482635 26.2424057 -0.09336853 25.42350769 C-0.08777378 22.88646675 -0.07522228 20.34951425 -0.0625 17.8125 C-0.05748432 16.09179815 -0.05292153 14.37109492 -0.04882812 12.65039062 C-0.03780607 8.4335597 -0.02054506 4.21679484 0 0 Z " fill="#BE272C" transform="translate(363,189)"/>
<path d="M0 0 C5.47370058 -0.36491337 5.47370058 -0.36491337 7.67793274 1.16340637 C9.51035695 3.7089793 9.36124539 5.45194576 9.34057617 8.57299805 C9.34034958 9.71395432 9.34012299 10.85491058 9.33988953 12.03044128 C9.32440567 13.26176285 9.30892181 14.49308441 9.29296875 15.76171875 C9.28872391 17.02264847 9.28447906 18.28357819 9.28010559 19.5827179 C9.26614627 22.93174943 9.23920104 26.28016758 9.20599365 29.62902832 C9.17528105 33.04755353 9.16159776 36.46614215 9.14648438 39.88476562 C9.11337223 46.59001349 9.06314018 53.29497133 9 60 C9.94875 59.95875 10.8975 59.9175 11.875 59.875 C15 60 15 60 17 62 C17.25 65 17.25 65 17 68 C14.43011319 70.56988681 13.41089947 70.25706775 9.84375 70.265625 C8.31041016 70.26949219 8.31041016 70.26949219 6.74609375 70.2734375 C5.67488281 70.26570313 4.60367188 70.25796875 3.5 70.25 C1.89318359 70.26160156 1.89318359 70.26160156 0.25390625 70.2734375 C-0.76832031 70.27085937 -1.79054687 70.26828125 -2.84375 70.265625 C-3.78412109 70.26336914 -4.72449219 70.26111328 -5.69335938 70.25878906 C-8 70 -8 70 -10 68 C-10.25 65 -10.25 65 -10 62 C-9.34 61.34 -8.68 60.68 -8 60 C-6.02 60 -4.04 60 -2 60 C-2 47.13 -2 34.26 -2 21 C-2.99 21.66 -3.98 22.32 -5 23 C-8.0625 23.3125 -8.0625 23.3125 -11 23 C-13.19401803 19.70897295 -13.62045622 18.81776215 -13 15 C-10.84765625 12.17578125 -10.84765625 12.17578125 -8.0625 9.3125 C-4.63778575 5.95101319 -4.63778575 5.95101319 -2 2 C-1.34 2 -0.68 2 0 2 C0 1.34 0 0.68 0 0 Z " fill="#B8272D" transform="translate(219,347)"/>
<path d="M0 0 C2.4375 0.375 2.4375 0.375 5.4375 2.375 C5.79826355 4.81741333 5.79826355 4.81741333 5.77807617 7.92626953 C5.77784958 9.08732208 5.77762299 10.24837463 5.77738953 11.4446106 C5.76190567 12.70296722 5.74642181 13.96132385 5.73046875 15.2578125 C5.72622391 16.54235321 5.72197906 17.82689392 5.71760559 19.15036011 C5.7061468 22.56672641 5.67667143 25.98271056 5.64349365 29.39892578 C5.61281462 32.88438751 5.59910494 36.36991094 5.58398438 39.85546875 C5.55180221 46.69546957 5.50059376 53.53521644 5.4375 60.375 C6.38625 60.33375 7.335 60.2925 8.3125 60.25 C11.4375 60.375 11.4375 60.375 13.4375 62.375 C13.6875 65.375 13.6875 65.375 13.4375 68.375 C11.4375 70.375 11.4375 70.375 9.13085938 70.61791992 C8.19048828 70.61381104 7.25011719 70.60970215 6.28125 70.60546875 C5.25902344 70.60353516 4.23679687 70.60160156 3.18359375 70.59960938 C2.11238281 70.58736328 1.04117187 70.57511719 -0.0625 70.5625 C-1.13371094 70.56185547 -2.20492188 70.56121094 -3.30859375 70.56054688 C-11.28189772 70.51530114 -11.28189772 70.51530114 -13.5625 69.375 C-13.6875 66 -13.6875 66 -13.5625 62.375 C-12.9025 61.715 -12.2425 61.055 -11.5625 60.375 C-9.5825 60.375 -7.6025 60.375 -5.5625 60.375 C-5.8925 48.165 -6.2225 35.955 -6.5625 23.375 C-8.8725 23.375 -11.1825 23.375 -13.5625 23.375 C-15.5625 22.1875 -15.5625 22.1875 -16.5625 20.375 C-16.21937915 15.74685834 -14.20089767 13.2849966 -11.25 9.8125 C-10.47011719 8.88308594 -9.69023437 7.95367187 -8.88671875 6.99609375 C-3.08311317 0.45118729 -3.08311317 0.45118729 0 0 Z " fill="#BC282C" transform="translate(271.5625,346.625)"/>
<path d="M0 0 C6.6 0 13.2 0 20 0 C18.02 2.31 16.04 4.62 14 7 C12.01636325 10.9672735 12.45248842 15.6868254 13 20 C14.97594932 24.02303282 18.00349901 26.14692155 22 28 C22.17479953 31.56187657 22.28101143 35.12264773 22.375 38.6875 C22.45041016 40.19860352 22.45041016 40.19860352 22.52734375 41.74023438 C22.6732983 49.11093908 22.6732983 49.11093908 20.67285156 51.75244141 C19.0390625 53.08203125 19.0390625 53.08203125 16 55 C14.78306124 57.43387753 14.68040104 59.41838846 14.4375 62.125 C14.35371094 63.03507812 14.26992187 63.94515625 14.18359375 64.8828125 C14.12300781 65.58148438 14.06242188 66.28015625 14 67 C12.02 67 10.04 67 8 67 C7.97421875 66.33613281 7.9484375 65.67226563 7.921875 64.98828125 C7.5674866 59.47109824 7.2111154 55.96340273 3 52 C2.01 51.34 1.02 50.68 0 50 C-0.36076355 47.86129761 -0.36076355 47.86129761 -0.34057617 45.18310547 C-0.34034958 44.18221893 -0.34012299 43.1813324 -0.33988953 42.15011597 C-0.32440567 41.06674957 -0.30892181 39.98338318 -0.29296875 38.8671875 C-0.28872391 37.76021515 -0.28447906 36.6532428 -0.28010559 35.51272583 C-0.26327214 31.9665729 -0.2256108 28.42098203 -0.1875 24.875 C-0.17245922 22.47526861 -0.15876977 20.07552833 -0.14648438 17.67578125 C-0.11335324 11.7836366 -0.06153847 5.89191369 0 0 Z " fill="#F6F4F4" transform="translate(236,350)"/>
<path d="M0 0 C4.64017685 2.2690173 8.11358508 5.11328707 10 10 C10.93661163 15.79978739 10.81374246 20.63966343 7.3125 25.5 C3.52834141 29.79457998 0.50233851 32.10172339 -5.3125 32.5 C-10.51109723 32.29205611 -14.20745866 30.53571009 -18 27 C-21.81049685 21.96585063 -22.79882187 17.19086946 -22 11 C-17.02951781 1.25020802 -10.69676155 -2.00214254 0 0 Z " fill="#F3F3F3" transform="translate(326,137)"/>
<path d="M0 0 C6.51646787 -0.69324126 10.73034999 1.17496094 16 5 C17.42589759 6.40768357 18.82239197 7.84579042 20.1875 9.3125 C23.17087692 12.56209291 23.17087692 12.56209291 27.5 13.5 C28.325 13.335 29.15 13.17 30 13 C31.0161692 8.37078475 30.83796731 4.65537393 30 0 C37.24896588 0.30204024 41.46151497 3.52406394 46.546875 8.51953125 C51.2841922 13.8002466 52.26643877 18.94450009 52.125 25.875 C52.10695313 27.02742188 52.08890625 28.17984375 52.0703125 29.3671875 C52.04710937 30.23601562 52.02390625 31.10484375 52 32 C51.2575 31.46375 50.515 30.9275 49.75 30.375 C40.24222041 24.05153614 30.60239574 19.67075406 19.0625 19.875 C18.37865234 19.88402344 17.69480469 19.89304687 16.99023438 19.90234375 C15.32666713 19.92561042 13.66328369 19.96146833 12 20 C15.06246747 18.21590198 17.22079273 17.77119979 20.75 17.875 C21.54921875 17.89304687 22.3484375 17.91109375 23.171875 17.9296875 C23.77515625 17.95289062 24.3784375 17.97609375 25 18 C25 17.01 25 16.02 25 15 C23.35 15 21.7 15 20 15 C19.05598958 13.20963542 18.11197917 11.41927083 17.16796875 9.62890625 C16.00980201 7.67732013 16.00980201 7.67732013 13 7 C12.5875 6.525625 12.175 6.05125 11.75 5.5625 C9.170055 3.25897767 6.30722434 2.81120597 3 2 C3.33 2.66 3.66 3.32 4 4 C4.45845272 11.10601719 4.45845272 11.10601719 2.75 14.4375 C0.74955702 16.2236098 -0.33882834 16.7580753 -3 17 C-5.25 16.5625 -5.25 16.5625 -7 16 C-6.67 15.01 -6.34 14.02 -6 13 C-5.030625 13.020625 -4.06125 13.04125 -3.0625 13.0625 C-0.12534105 13.35618499 -0.12534105 13.35618499 1 12 C0.90997602 9.97591245 0.75358962 7.95455713 0.5625 5.9375 C0.40974609 4.28041016 0.40974609 4.28041016 0.25390625 2.58984375 C0.17011719 1.73519531 0.08632813 0.88054687 0 0 Z " fill="#BD272C" transform="translate(297,89)"/>
<path d="M0 0 C2.4375 0.375 2.4375 0.375 5.4375 2.375 C5.79826355 4.81741333 5.79826355 4.81741333 5.77807617 7.92626953 C5.77784958 9.08732208 5.77762299 10.24837463 5.77738953 11.4446106 C5.76190567 12.70296722 5.74642181 13.96132385 5.73046875 15.2578125 C5.72622391 16.54235321 5.72197906 17.82689392 5.71760559 19.15036011 C5.7061468 22.56672641 5.67667143 25.98271056 5.64349365 29.39892578 C5.61281462 32.88438751 5.59910494 36.36991094 5.58398438 39.85546875 C5.55180221 46.69546957 5.50059376 53.53521644 5.4375 60.375 C6.38625 60.33375 7.335 60.2925 8.3125 60.25 C11.4375 60.375 11.4375 60.375 13.4375 62.375 C13.6875 65.375 13.6875 65.375 13.4375 68.375 C11.4375 70.375 11.4375 70.375 9.13085938 70.61791992 C8.19048828 70.61381104 7.25011719 70.60970215 6.28125 70.60546875 C5.25902344 70.60353516 4.23679687 70.60160156 3.18359375 70.59960938 C2.11238281 70.58736328 1.04117187 70.57511719 -0.0625 70.5625 C-1.13371094 70.56185547 -2.20492188 70.56121094 -3.30859375 70.56054688 C-11.28189772 70.51530114 -11.28189772 70.51530114 -13.5625 69.375 C-13.6875 66 -13.6875 66 -13.5625 62.375 C-12.9025 61.715 -12.2425 61.055 -11.5625 60.375 C-9.5825 60.375 -7.6025 60.375 -5.5625 60.375 C-5.8925 48.165 -6.2225 35.955 -6.5625 23.375 C-8.8725 23.375 -11.1825 23.375 -13.5625 23.375 C-15.5625 22.1875 -15.5625 22.1875 -16.5625 20.375 C-16.21937915 15.74685834 -14.20089767 13.2849966 -11.25 9.8125 C-10.47011719 8.88308594 -9.69023437 7.95367187 -8.88671875 6.99609375 C-3.08311317 0.45118729 -3.08311317 0.45118729 0 0 Z M-3.640625 2.94921875 C-6.34660025 4.95670039 -7.63400914 7.27883314 -9.3125 10.1875 C-9.92609375 11.22519531 -10.5396875 12.26289063 -11.171875 13.33203125 C-12.55449989 16.35749414 -12.87663673 18.10676978 -12.5625 21.375 C-10.2525 21.375 -7.9425 21.375 -5.5625 21.375 C-5.2325 33.915 -4.9025 46.455 -4.5625 59.375 C-3.0775 58.88 -3.0775 58.88 -1.5625 58.375 C-1.2325 57.715 -0.9025 57.055 -0.5625 56.375 C2.4375 57.375 2.4375 57.375 3.4375 59.375 C3.4375 40.895 3.4375 22.415 3.4375 3.375 C-1.09571428 2.07818743 -1.09571428 2.07818743 -3.640625 2.94921875 Z " fill="#BE272B" transform="translate(271.5625,346.625)"/>
<path d="M0 0 C5.47370058 -0.36491337 5.47370058 -0.36491337 7.67793274 1.16340637 C9.51035695 3.7089793 9.36124539 5.45194576 9.34057617 8.57299805 C9.34034958 9.71395432 9.34012299 10.85491058 9.33988953 12.03044128 C9.32440567 13.26176285 9.30892181 14.49308441 9.29296875 15.76171875 C9.28872391 17.02264847 9.28447906 18.28357819 9.28010559 19.5827179 C9.26614627 22.93174943 9.23920104 26.28016758 9.20599365 29.62902832 C9.17528105 33.04755353 9.16159776 36.46614215 9.14648438 39.88476562 C9.11337223 46.59001349 9.06314018 53.29497133 9 60 C9.94875 59.95875 10.8975 59.9175 11.875 59.875 C15 60 15 60 17 62 C17.25 65 17.25 65 17 68 C14.43011319 70.56988681 13.41089947 70.25706775 9.84375 70.265625 C8.31041016 70.26949219 8.31041016 70.26949219 6.74609375 70.2734375 C5.67488281 70.26570313 4.60367188 70.25796875 3.5 70.25 C1.89318359 70.26160156 1.89318359 70.26160156 0.25390625 70.2734375 C-0.76832031 70.27085937 -1.79054687 70.26828125 -2.84375 70.265625 C-3.78412109 70.26336914 -4.72449219 70.26111328 -5.69335938 70.25878906 C-8 70 -8 70 -10 68 C-10.25 65 -10.25 65 -10 62 C-8 60 -8 60 -2 59 C-1.67 47.12 -1.34 35.24 -1 23 C-0.67 23 -0.34 23 0 23 C0 35.21 0 47.42 0 60 C2.31 59.34 4.62 58.68 7 58 C6.67 40.18 6.34 22.36 6 4 C3.525 3.505 3.525 3.505 1 3 C0.66226563 3.49371094 0.32453125 3.98742187 -0.0234375 4.49609375 C-0.46945313 5.13675781 -0.91546875 5.77742188 -1.375 6.4375 C-1.81585938 7.07558594 -2.25671875 7.71367187 -2.7109375 8.37109375 C-4 10 -4 10 -6 11 C-6.71247732 12.6476038 -7.37400383 14.31763529 -8 16 C-8.65213539 17.34050052 -9.31379969 18.67661368 -10 20 C-8.02 20 -6.04 20 -4 20 C-4.33 20.99 -4.66 21.98 -5 23 C-7.875 23.1875 -7.875 23.1875 -11 23 C-13.19401803 19.70897295 -13.62045622 18.81776215 -13 15 C-10.84765625 12.17578125 -10.84765625 12.17578125 -8.0625 9.3125 C-4.63778575 5.95101319 -4.63778575 5.95101319 -2 2 C-1.34 2 -0.68 2 0 2 C0 1.34 0 0.68 0 0 Z " fill="#B72B31" transform="translate(219,347)"/>
<path d="M0 0 C0 0.99 0 1.98 0 3 C-0.639375 3.103125 -1.27875 3.20625 -1.9375 3.3125 C-2.618125 3.539375 -3.29875 3.76625 -4 4 C-4.33 4.99 -4.66 5.98 -5 7 C-3.68 7 -2.36 7 -1 7 C-1 7.99 -1 8.98 -1 10 C-1.99 10 -2.98 10 -4 10 C-3.80921875 10.88042969 -3.6184375 11.76085937 -3.421875 12.66796875 C-3.20015625 13.82941406 -2.9784375 14.99085938 -2.75 16.1875 C-2.51796875 17.33605469 -2.2859375 18.48460937 -2.046875 19.66796875 C-1.98757503 23.88320855 -3.29953322 24.89647848 -6 28 C-6.68273592 30.64813932 -6.68273592 30.64813932 -6.75 33.3125 C-6.80671875 34.19550781 -6.8634375 35.07851563 -6.921875 35.98828125 C-6.94765625 36.65214844 -6.9734375 37.31601562 -7 38 C-8.98 38 -10.96 38 -13 38 C-13.02578125 37.33613281 -13.0515625 36.67226563 -13.078125 35.98828125 C-13.4345756 30.43899358 -13.83610767 27.03771378 -18 23 C-18.66 22.34 -19.32 21.68 -20 21 C-19.34 21 -18.68 21 -18 21 C-18.03480469 20.09636719 -18.06960937 19.19273437 -18.10546875 18.26171875 C-18.13253906 17.08222656 -18.15960938 15.90273438 -18.1875 14.6875 C-18.22230469 13.51574219 -18.25710937 12.34398437 -18.29296875 11.13671875 C-18 8 -18 8 -16.65234375 6.06640625 C-15 5 -15 5 -12.375 5.25 C-10 6 -10 6 -9 7 C-8.71125 6.030625 -8.4225 5.06125 -8.125 4.0625 C-6.41901085 -0.58158158 -4.5636993 -0.12009735 0 0 Z " fill="#F0EFEE" transform="translate(257,379)"/>
<path d="M0 0 C16.87409551 8.9146165 16.87409551 8.9146165 20 16 C20 17.32 20 18.64 20 20 C17.84620337 21.07689831 16.32074652 21.29769483 13.9375 21.5625 C13.22464844 21.64628906 12.51179688 21.73007813 11.77734375 21.81640625 C7.8596359 22.07538272 3.92625822 22 0 22 C0 14.74 0 7.48 0 0 Z " fill="#F6F6F6" transform="translate(363,149)"/>
<path d="M0 0 C2.31 0 4.62 0 7 0 C7 11.22 7 22.44 7 34 C4.69 34 2.38 34 0 34 C0.33 32.35 0.66 30.7 1 29 C0.67 29 0.34 29 0 29 C0 21.74 0 14.48 0 7 C-2.475 6.01 -2.475 6.01 -5 5 C-3.625 3.5 -3.625 3.5 -2 2 C-1.34 2 -0.68 2 0 2 C0 1.34 0 0.68 0 0 Z " fill="#100C0D" transform="translate(258,371)"/>
<path d="M0 0 C2.5 0.375 2.5 0.375 5.5 2.375 C5.86076355 4.81741333 5.86076355 4.81741333 5.84057617 7.92626953 C5.84034958 9.08732208 5.84012299 10.24837463 5.83988953 11.4446106 C5.82440567 12.70296722 5.80892181 13.96132385 5.79296875 15.2578125 C5.78872391 16.54235321 5.78447906 17.82689392 5.78010559 19.15036011 C5.7686468 22.56672641 5.73917143 25.98271056 5.70599365 29.39892578 C5.67531462 32.88438751 5.66160494 36.36991094 5.64648438 39.85546875 C5.61430221 46.69546957 5.56309376 53.53521644 5.5 60.375 C6.44875 60.33375 7.3975 60.2925 8.375 60.25 C11.5 60.375 11.5 60.375 13.5 62.375 C13.75 65.375 13.75 65.375 13.5 68.375 C11.5 70.375 11.5 70.375 9.19335938 70.61791992 C8.25298828 70.61381104 7.31261719 70.60970215 6.34375 70.60546875 C5.32152344 70.60353516 4.29929687 70.60160156 3.24609375 70.59960938 C2.17488281 70.58736328 1.10367187 70.57511719 0 70.5625 C-1.07121094 70.56185547 -2.14242188 70.56121094 -3.24609375 70.56054688 C-11.21939772 70.51530114 -11.21939772 70.51530114 -13.5 69.375 C-13.625 66 -13.625 66 -13.5 62.375 C-11.5 60.375 -11.5 60.375 -8.375 60.25 C-7.42625 60.29125 -6.4775 60.3325 -5.5 60.375 C-5.5 61.035 -5.5 61.695 -5.5 62.375 C-7.975 62.87 -7.975 62.87 -10.5 63.375 C-10.83 65.025 -11.16 66.675 -11.5 68.375 C-3.91 68.375 3.68 68.375 11.5 68.375 C11.5 66.725 11.5 65.075 11.5 63.375 C10.076875 63.189375 10.076875 63.189375 8.625 63 C5.5 62.375 5.5 62.375 3.5 60.375 C3.2215271 57.97055054 3.2215271 57.97055054 3.18115234 54.91552734 C3.15134781 53.20397964 3.15134781 53.20397964 3.12094116 51.45785522 C3.10938995 50.22137238 3.09783875 48.98488953 3.0859375 47.7109375 C3.06657135 46.44859283 3.0472052 45.18624817 3.0272522 43.88565063 C2.97750955 40.52865788 2.93627428 37.17177685 2.89910889 33.81463623 C2.85911153 30.38934336 2.80799981 26.96421854 2.7578125 23.5390625 C2.6615994 16.81781619 2.57659418 10.09649695 2.5 3.375 C-0.14 3.705 -2.78 4.035 -5.5 4.375 C-3.18610635 0.47791595 -3.18610635 0.47791595 0 0 Z " fill="#AB3239" transform="translate(271.5,346.625)"/>
<path d="M0 0 C7.82465795 0.19923898 13.32331792 2.21356621 18.83203125 7.88671875 C20.27730029 9.55537832 21.66361879 11.24346864 23 13 C20.5625 12.1875 20.5625 12.1875 18 11 C17.67 10.01 17.34 9.02 17 8 C14.49552484 6.78130071 14.49552484 6.78130071 12 6 C12 5.34 12 4.68 12 4 C9.03 3.67 6.06 3.34 3 3 C3.309375 4.299375 3.61875 5.59875 3.9375 6.9375 C4.19853516 8.03384766 4.19853516 8.03384766 4.46484375 9.15234375 C4.83887569 10.99969898 4.83887569 10.99969898 6 12 C6.34888484 13.36622129 6.65421345 14.74368542 6.9375 16.125 C7.11410156 16.93324219 7.29070312 17.74148437 7.47265625 18.57421875 C7.79902586 20.07551894 8.12035813 21.5779359 8.43359375 23.08203125 C9.32742602 26.87745513 9.32742602 26.87745513 12.125 29.4375 C12.74375 29.623125 13.3625 29.80875 14 30 C14 30.99 14 31.98 14 33 C19.57411992 31.23975161 23.05592216 29.31758821 27.32421875 25.36328125 C29.6635032 23.460227 32.0992892 22.70749044 35 22 C35 21.34 35 20.68 35 20 C37.31 20 39.62 20 42 20 C39.42906526 21.71395649 37.03576497 22.9522834 34.25 24.25 C28.10658437 27.29476301 22.8646253 30.59590978 20 37 C17.03824877 36.38722388 15.61941217 35.74627478 13 34 C13 33.34 13 32.68 13 32 C12.01 31.67 11.02 31.34 10 31 C6.18079538 25.56687342 4.18587593 18.96349226 2.1875 12.6875 C1.96852051 12.0061499 1.74954102 11.3247998 1.52392578 10.62280273 C0.41514432 6.98866204 -0.25741418 3.80237519 0 0 Z " fill="#9E3136" transform="translate(267,89)"/>
<path d="M0 0 C0.33 0.99 0.66 1.98 1 3 C0.505 3.804375 0.01 4.60875 -0.5 5.4375 C-2.27341209 7.8399539 -2.27341209 7.8399539 -1.625 10.25 C-1.41875 10.8275 -1.2125 11.405 -1 12 C-1.33 12.33 -1.66 12.66 -2 13 C-2.07179964 14.51928038 -2.08392007 16.04167482 -2.0625 17.5625 C-2.05347656 18.38878906 -2.04445312 19.21507812 -2.03515625 20.06640625 C-2.02355469 20.70449219 -2.01195312 21.34257812 -2 22 C-1.34 22 -0.68 22 0 22 C0.79953138 25.28696233 1.09658936 26.71023192 0 30 C0.66 30 1.32 30 2 30 C2 37.59 2 45.18 2 53 C1.67 53 1.34 53 1 53 C1 45.74 1 38.48 1 31 C-0.32 30.67 -1.64 30.34 -3 30 C-6.59307039 26.83467608 -9.55783256 23.92420066 -10.29296875 19.0625 C-9.88773092 11.13784902 -4.87949424 5.82582039 0 0 Z " fill="#151314" transform="translate(208,347)"/>
<path d="M0 0 C5.47370058 -0.36491337 5.47370058 -0.36491337 7.67793274 1.16340637 C9.51035695 3.7089793 9.36124539 5.45194576 9.34057617 8.57299805 C9.34034958 9.71395432 9.34012299 10.85491058 9.33988953 12.03044128 C9.32440567 13.26176285 9.30892181 14.49308441 9.29296875 15.76171875 C9.28872391 17.02264847 9.28447906 18.28357819 9.28010559 19.5827179 C9.26614627 22.93174943 9.23920104 26.28016758 9.20599365 29.62902832 C9.17528105 33.04755353 9.16159776 36.46614215 9.14648438 39.88476562 C9.11337223 46.59001349 9.06314018 53.29497133 9 60 C8.67 60 8.34 60 8 60 C8 41.52 8 23.04 8 4 C5.69 3.67 3.38 3.34 1 3 C0.66226563 3.49371094 0.32453125 3.98742187 -0.0234375 4.49609375 C-0.46945313 5.13675781 -0.91546875 5.77742188 -1.375 6.4375 C-1.81585938 7.07558594 -2.25671875 7.71367187 -2.7109375 8.37109375 C-4 10 -4 10 -6 11 C-6.71247732 12.6476038 -7.37400383 14.31763529 -8 16 C-8.65213539 17.34050052 -9.31379969 18.67661368 -10 20 C-8.02 20 -6.04 20 -4 20 C-4.33 20.99 -4.66 21.98 -5 23 C-7.875 23.1875 -7.875 23.1875 -11 23 C-13.19401803 19.70897295 -13.62045622 18.81776215 -13 15 C-10.84765625 12.17578125 -10.84765625 12.17578125 -8.0625 9.3125 C-4.63778575 5.95101319 -4.63778575 5.95101319 -2 2 C-1.34 2 -0.68 2 0 2 C0 1.34 0 0.68 0 0 Z " fill="#8C2B31" transform="translate(219,347)"/>
<path d="M0 0 C3.875 1.75 3.875 1.75 5 4 C4.01 4 3.02 4 2 4 C2.09415393 8.28706572 2.20037831 12.57361871 2.31738281 16.86010742 C2.35546427 18.31575518 2.390352 19.77149037 2.421875 21.22729492 C2.46798255 23.33023148 2.52589547 25.43257675 2.5859375 27.53515625 C2.6173584 28.797229 2.6487793 30.05930176 2.68115234 31.35961914 C3.0135064 35.1542067 3.72832944 38.41189205 5 42 C6.98567734 43.49743888 6.98567734 43.49743888 9 44 C9 44.99 9 45.98 9 47 C11.10409639 47.02701408 13.20829178 47.04640223 15.3125 47.0625 C16.48425781 47.07410156 17.65601563 47.08570313 18.86328125 47.09765625 C22.03059195 47.14899898 22.03059195 47.14899898 25 46 C25.33 45.34 25.66 44.68 26 44 C27.32 44.33 28.64 44.66 30 45 C24.04518918 49.98916582 19.59172339 50.61682753 12 50 C6.67108868 48.39127206 4.6795126 45.54945842 1.98046875 40.9375 C-0.22489404 36.57949225 -0.12949048 32.59346942 -0.09765625 27.83203125 C-0.0962413 27.03721848 -0.09482635 26.2424057 -0.09336853 25.42350769 C-0.08777378 22.88646675 -0.07522228 20.34951425 -0.0625 17.8125 C-0.05748432 16.09179815 -0.05292153 14.37109492 -0.04882812 12.65039062 C-0.03780607 8.4335597 -0.02054506 4.21679484 0 0 Z " fill="#8E2D33" transform="translate(363,189)"/>
<path d="M0 0 C0.33 0 0.66 0 1 0 C1.01030746 0.63227005 1.02061493 1.2645401 1.03123474 1.91596985 C1.13926004 8.48567124 1.25386139 15.05523438 1.37231445 21.62475586 C1.41567602 24.07785149 1.45735019 26.53097753 1.49731445 28.98413086 C1.55498721 32.50644101 1.61869052 36.02859784 1.68359375 39.55078125 C1.70030624 40.65086014 1.71701874 41.75093903 1.73423767 42.88435364 C1.75418289 43.90518539 1.77412811 44.92601715 1.79467773 45.9777832 C1.81799416 47.32680473 1.81799416 47.32680473 1.84178162 48.70307922 C1.91487339 51.16176469 1.91487339 51.16176469 3 54 C4.485 54.495 4.485 54.495 6 55 C7.485 55.495 7.485 55.495 9 56 C10.30765478 59.92296433 10.1971417 62.86002433 10 67 C8 69 8 69 5.66162109 69.22705078 C4.23197021 69.21134033 4.23197021 69.21134033 2.7734375 69.1953125 C1.7421875 69.18886719 0.7109375 69.18242187 -0.3515625 69.17578125 C-1.97191406 69.15064453 -1.97191406 69.15064453 -3.625 69.125 C-4.71296875 69.11597656 -5.8009375 69.10695313 -6.921875 69.09765625 C-9.61480152 69.07403409 -12.30729255 69.04109556 -15 69 C-15.33 68.34 -15.66 67.68 -16 67 C-15.3387915 66.97494385 -14.67758301 66.9498877 -13.99633789 66.92407227 C-11.01817695 66.80846898 -8.0403608 66.68558246 -5.0625 66.5625 C-4.02158203 66.52318359 -2.98066406 66.48386719 -1.90820312 66.44335938 C-0.91884766 66.40146484 0.07050781 66.35957031 1.08984375 66.31640625 C2.00628662 66.27974854 2.92272949 66.24309082 3.86694336 66.20532227 C5.9820728 66.22996136 5.9820728 66.22996136 7 65 C7.04080783 63.00041636 7.04254356 60.99954746 7 59 C4.69 58.34 2.38 57.68 0 57 C0 38.19 0 19.38 0 0 Z " fill="#370508" transform="translate(277,350)"/>
<path d="M0 0 C4.9822956 3.54296576 7.85506577 6.81539798 9 13 C9.22432544 17.34692845 9.17894858 21.65221219 9 26 C8.2575 25.46375 7.515 24.9275 6.75 24.375 C-2.75777959 18.05153614 -12.39760426 13.67075406 -23.9375 13.875 C-24.62134766 13.88402344 -25.30519531 13.89304687 -26.00976562 13.90234375 C-27.67333287 13.92561042 -29.33671631 13.96146833 -31 14 C-27.24779234 11.57829454 -23.88060126 11.76507223 -19.5 11.8125 C-17.53546875 11.82216797 -17.53546875 11.82216797 -15.53125 11.83203125 C-12.79480564 11.96219398 -10.58534313 12.17559211 -8 13 C-8 13.66 -8 14.32 -8 15 C-6.14375 15.1546875 -6.14375 15.1546875 -4.25 15.3125 C-0.74317752 15.74774392 1.47569687 16.37051757 4 19 C4 19.66 4 20.32 4 21 C4.66 21 5.32 21 6 21 C6.19392201 15.47322267 5.7479503 11.24385089 4 6 C3.34 6 2.68 6 2 6 C1.34 4.02 0.68 2.04 0 0 Z " fill="#983135" transform="translate(340,95)"/>
<path d="M0 0 C1.1446875 0.3403125 1.1446875 0.3403125 2.3125 0.6875 C2.36652274 2.79138569 2.40530256 4.89566714 2.4375 7 C2.46070313 8.17175781 2.48390625 9.34351563 2.5078125 10.55078125 C2.3125 13.6875 2.3125 13.6875 0.3125 16.6875 C-2.25 16.9375 -2.25 16.9375 -4.6875 16.6875 C-6.55666794 14.81833206 -5.90438008 11.81305426 -5.9375 9.3125 C-5.96328125 8.14976562 -5.9890625 6.98703125 -6.015625 5.7890625 C-5.6875 2.6875 -5.6875 2.6875 -4.484375 0.7109375 C-2.6875 -0.3125 -2.6875 -0.3125 0 0 Z " fill="#A55356" transform="translate(244.6875,384.3125)"/>
<path d="M0 0 C6.51646787 -0.69324126 10.73034999 1.17496094 16 5 C17.42589759 6.40768357 18.82239197 7.84579042 20.1875 9.3125 C23.15833494 12.50476763 23.15833494 12.50476763 27.375 13.625 C30.14057822 13.20882007 30.14057822 13.20882007 32 11 C32.495 12.98 32.495 12.98 33 15 C28.71 15 24.42 15 20 15 C19.05598958 13.20963542 18.11197917 11.41927083 17.16796875 9.62890625 C16.00980201 7.67732013 16.00980201 7.67732013 13 7 C12.5875 6.525625 12.175 6.05125 11.75 5.5625 C9.170055 3.25897767 6.30722434 2.81120597 3 2 C3.33 2.66 3.66 3.32 4 4 C4.45845272 11.10601719 4.45845272 11.10601719 2.75 14.4375 C0.74955702 16.2236098 -0.33882834 16.7580753 -3 17 C-5.25 16.5625 -5.25 16.5625 -7 16 C-6.67 15.01 -6.34 14.02 -6 13 C-5.030625 13.020625 -4.06125 13.04125 -3.0625 13.0625 C-0.12534105 13.35618499 -0.12534105 13.35618499 1 12 C0.90997602 9.97591245 0.75358962 7.95455713 0.5625 5.9375 C0.40974609 4.28041016 0.40974609 4.28041016 0.25390625 2.58984375 C0.17011719 1.73519531 0.08632813 0.88054687 0 0 Z " fill="#983339" transform="translate(297,89)"/>
<path d="M0 0 C0.66 0 1.32 0 2 0 C2 12.87 2 25.74 2 39 C-0.31 39.66 -2.62 40.32 -5 41 C-5.04254356 42.99954746 -5.04080783 45.00041636 -5 47 C-3.97285339 48.2505313 -3.97285339 48.2505313 -1.77514648 48.11352539 C-0.81680908 48.10828857 0.14152832 48.10305176 1.12890625 48.09765625 C2.16337891 48.09443359 3.19785156 48.09121094 4.26367188 48.08789062 C5.35228516 48.07951172 6.44089844 48.07113281 7.5625 48.0625 C8.65498047 48.05798828 9.74746094 48.05347656 10.87304688 48.04882812 C13.58208495 48.03699826 16.29101599 48.02051543 19 48 C19.66 46.02 20.32 44.04 21 42 C23 45.75 23 45.75 23 48 C19.45986775 50.36008817 17.98878045 50.23463644 13.80078125 50.1953125 C12.59228516 50.18886719 11.38378906 50.18242187 10.13867188 50.17578125 C8.2447168 50.15064453 8.2447168 50.15064453 6.3125 50.125 C5.03826172 50.11597656 3.76402344 50.10695313 2.45117188 50.09765625 C-0.69940627 50.07405641 -3.84960983 50.04113194 -7 50 C-7 46.37 -7 42.74 -7 39 C-5 38 -5 38 1 38 C1 26.78 1 15.56 1 4 C-1.97 3.505 -1.97 3.505 -5 3 C-4.360625 2.690625 -3.72125 2.38125 -3.0625 2.0625 C-1.06389179 1.1654837 -1.06389179 1.1654837 0 0 Z " fill="#380609" transform="translate(215,368)"/>
<path d="M0 0 C0 4.04141586 -1.75882509 6.24967578 -3.80859375 9.6484375 C-5.057753 12.11399116 -5.58183646 14.27953377 -6 17 C-4.865625 16.814375 -3.73125 16.62875 -2.5625 16.4375 C-0.7990625 16.2209375 -0.7990625 16.2209375 1 16 C2 17 2 17 2.11352539 20.69360352 C2.11336624 22.33871292 2.10766988 23.98382731 2.09765625 25.62890625 C2.0962413 26.49313705 2.09482635 27.35736786 2.09336853 28.24778748 C2.08775239 31.01939292 2.07519719 33.7909188 2.0625 36.5625 C2.05748708 38.4368478 2.05292381 40.31119685 2.04882812 42.18554688 C2.03777772 46.79039544 2.0205023 51.39518421 2 56 C1.67 56 1.34 56 1 56 C0.67 43.79 0.34 31.58 0 19 C-2.31 19 -4.62 19 -7 19 C-9 17.8125 -9 17.8125 -10 16 C-9.67860798 11.25328712 -7.46525738 8.72699102 -4.4375 5.1875 C-3.61121094 4.21167969 -2.78492188 3.23585938 -1.93359375 2.23046875 C-1.29550781 1.49441406 -0.65742188 0.75835937 0 0 Z " fill="#842327" transform="translate(265,351)"/>
<path d="M0 0 C0.33 0 0.66 0 1 0 C1.09882689 5.35679728 1.17144782 10.71306485 1.21972656 16.07055664 C1.23985059 17.8932418 1.26715296 19.71586234 1.30175781 21.53833008 C1.35024268 24.15722588 1.37296009 26.77526879 1.390625 29.39453125 C1.41127014 30.21025101 1.43191528 31.02597076 1.45318604 31.8664093 C1.45542495 37.50260938 1.45542495 37.50260938 -0.88378906 40.05737305 C-3 41 -3 41 -5.25 40.6875 C-5.8275 40.460625 -6.405 40.23375 -7 40 C-6.67 41.65 -6.34 43.3 -6 45 C1.59 45 9.18 45 17 45 C16.67 45.66 16.34 46.32 16 47 C12.20839703 47.05786668 8.41690689 47.09355054 4.625 47.125 C3.54476562 47.14175781 2.46453125 47.15851563 1.3515625 47.17578125 C0.3203125 47.18222656 -0.7109375 47.18867188 -1.7734375 47.1953125 C-3.20308838 47.21102295 -3.20308838 47.21102295 -4.66162109 47.22705078 C-7 47 -7 47 -9 45 C-9.25 42 -9.25 42 -9 39 C-7 37 -7 37 -1 36 C-0.67 24.12 -0.34 12.24 0 0 Z " fill="#AC3338" transform="translate(218,370)"/>
<path d="M0 0 C2.4375 0.8125 2.4375 0.8125 4.4375 2.8125 C4.6875 5.8125 4.6875 5.8125 4.4375 8.8125 C2.4375 10.8125 2.4375 10.8125 0 11.125 C-2.5625 10.8125 -2.5625 10.8125 -4.375 9.625 C-5.98775784 7.16342224 -5.9959014 5.70184264 -5.5625 2.8125 C-3.86282344 0.12880016 -3.19877434 -0.23405666 0 0 Z " fill="#131313" transform="translate(320.5625,147.1875)"/>
<path d="M0 0 C0.66 0.33 1.32 0.66 2 1 C0.92492371 2.29854721 -0.16043736 3.58858361 -1.25 4.875 C-1.85328125 5.59429687 -2.4565625 6.31359375 -3.078125 7.0546875 C-5 9 -5 9 -6.76757812 9.78125 C-9.89215688 11.48705677 -12.17219663 13.92636017 -14.640625 16.4453125 C-15.16767029 16.97518768 -15.69471558 17.50506287 -16.23773193 18.05099487 C-17.91325675 19.73767825 -19.58167722 21.43119564 -21.25 23.125 C-22.38755851 24.27259388 -23.52557436 25.41973461 -24.6640625 26.56640625 C-27.44803465 29.37238137 -30.2256576 32.18450464 -33 35 C-33 31.437248 -32.49955511 31.09176472 -30.140625 28.59375 C-29.52501709 27.93737549 -28.90940918 27.28100098 -28.27514648 26.60473633 C-27.60684814 25.91017334 -26.9385498 25.21561035 -26.25 24.5 C-25.57203369 23.78674561 -24.89406738 23.07349121 -24.19555664 22.33862305 C-16.56237498 14.38146299 -8.49726026 7.02490092 0 0 Z " fill="#EBE9E9" transform="translate(98,66)"/>
<path d="M0 0 C7.52355405 3.69675866 13.65380967 8.56706466 20 14 C20.80566406 14.65871094 21.61132812 15.31742188 22.44140625 15.99609375 C23.16199219 16.59550781 23.88257813 17.19492188 24.625 17.8125 C25.25664062 18.33457031 25.88828125 18.85664063 26.5390625 19.39453125 C29.31484043 22.44491823 29.17729935 26.02569801 29.25 30 C29.27578125 30.845625 29.3015625 31.69125 29.328125 32.5625 C28.93637521 35.47264128 27.91578046 36.8220601 26 39 C26.10699219 38.20335937 26.21398437 37.40671875 26.32421875 36.5859375 C27.27246712 28.41127596 27.27246712 28.41127596 24 21 C24 20.34 24 19.68 24 19 C23.443125 18.938125 22.88625 18.87625 22.3125 18.8125 C19.05655096 17.66851791 17.392868 15.45123064 15 13 C14.175 12.505 13.35 12.01 12.5 11.5 C9.52358584 9.7141515 7.44892737 7.44892737 5 5 C4.071875 4.443125 3.14375 3.88625 2.1875 3.3125 C1.465625 2.879375 0.74375 2.44625 0 2 C0 1.34 0 0.68 0 0 Z " fill="#9B3337" transform="translate(368,193)"/>
<path d="M0 0 C2.31 0 4.62 0 7 0 C8.31857548 2.63715096 8.11991704 4.5983264 8.11352539 7.55126953 C8.11344986 8.71232208 8.11337433 9.87337463 8.11329651 11.0696106 C8.10813522 12.32796722 8.10297394 13.58632385 8.09765625 14.8828125 C8.0962413 16.16735321 8.09482635 17.45189392 8.09336853 18.77536011 C8.08954911 22.19156842 8.07972373 25.60773426 8.06866455 29.02392578 C8.05843807 32.50943426 8.05386826 35.9949496 8.04882812 39.48046875 C8.03810096 46.32032995 8.02103142 53.16016294 8 60 C10.31 60 12.62 60 15 60 C14.67 60.99 14.34 61.98 14 63 C11.69 62.34 9.38 61.68 7 61 C6.98786972 59.93551132 6.98786972 59.93551132 6.97549438 58.84951782 C6.89762497 52.16885663 6.81035789 45.4883925 6.71247292 38.80799294 C6.66247962 35.37333864 6.61615022 31.93871555 6.578125 28.50390625 C6.5342726 24.55711312 6.47460852 20.61063634 6.4140625 16.6640625 C6.40251129 15.42757965 6.39096008 14.1910968 6.37905884 12.91714478 C6.35918915 11.77611298 6.33931946 10.63508118 6.31884766 9.45947266 C6.29886215 7.94723618 6.29886215 7.94723618 6.2784729 6.40444946 C6.23102768 3.81698676 6.23102768 3.81698676 4 2 C2.68252676 1.30251417 1.35085807 0.63040043 0 0 Z " fill="#2E0102" transform="translate(221,346)"/>
<path d="M0 0 C3.37663282 0.48237612 4.46886856 1.81958496 6.625 4.375 C3.655 3.715 0.685 3.055 -2.375 2.375 C-2.024375 3.40625 -1.67375 4.4375 -1.3125 5.5 C-0.37641724 9.36914209 -0.37905983 11.57231937 -1.375 15.375 C-2.375 16.375 -2.375 16.375 -5.1328125 16.71875 C-9.30485022 16.27641347 -10.45278345 14.92650896 -13.25 11.875 C-14.42175781 10.62203125 -14.42175781 10.62203125 -15.6171875 9.34375 C-16.19726562 8.6940625 -16.77734375 8.044375 -17.375 7.375 C-16.715 7.045 -16.055 6.715 -15.375 6.375 C-13.25 7.3125 -13.25 7.3125 -11.375 8.375 C-11.375 9.365 -11.375 10.355 -11.375 11.375 C-10.055 11.705 -8.735 12.035 -7.375 12.375 C-7.375 13.365 -7.375 14.355 -7.375 15.375 C-6.055 15.045 -4.735 14.715 -3.375 14.375 C-3.29834108 11.15532535 -3.38994864 8.29726705 -4 5.125 C-4.12375 4.2175 -4.2475 3.31 -4.375 2.375 C-2.375 0.375 -2.375 0.375 0 0 Z " fill="#2C0405" transform="translate(329.375,86.625)"/>
<path d="M0 0 C0 0.99 0 1.98 0 3 C-0.639375 3.103125 -1.27875 3.20625 -1.9375 3.3125 C-2.618125 3.539375 -3.29875 3.76625 -4 4 C-4.33 4.99 -4.66 5.98 -5 7 C-3.68 7 -2.36 7 -1 7 C-1 7.99 -1 8.98 -1 10 C-1.99 10.33 -2.98 10.66 -4 11 C-4.33 13.31 -4.66 15.62 -5 18 C-5.99 18 -6.98 18 -8 18 C-8.08074203 15.37438891 -8.1403623 12.75124324 -8.1875 10.125 C-8.21263672 9.37863281 -8.23777344 8.63226563 -8.26367188 7.86328125 C-8.29296875 5.6953125 -8.29296875 5.6953125 -8 2 C-4.77208445 -0.1519437 -3.71599191 -0.20086443 0 0 Z " fill="#A44F57" transform="translate(257,379)"/>
<path d="M0 0 C2.5 0.375 2.5 0.375 5.5 2.375 C5.86076355 4.77944946 5.86076355 4.77944946 5.84057617 7.83447266 C5.84034958 8.97550446 5.84012299 10.11653625 5.83988953 11.29214478 C5.82440567 12.52862762 5.80892181 13.76511047 5.79296875 15.0390625 C5.78872391 16.30140717 5.78447906 17.56375183 5.78010559 18.86434937 C5.76613137 22.22161351 5.73917302 25.57826932 5.70599365 28.93536377 C5.67531352 32.36050148 5.6616047 35.78570201 5.64648438 39.2109375 C5.61334641 45.9324605 5.56309539 52.65369511 5.5 59.375 C5.17 59.375 4.84 59.375 4.5 59.375 C4.17 41.225 3.84 23.075 3.5 4.375 C-1.26881134 3.34046942 -1.26881134 3.34046942 -5.5 4.375 C-3.18610635 0.47791595 -3.18610635 0.47791595 0 0 Z " fill="#933439" transform="translate(271.5,346.625)"/>
<path d="M0 0 C3 0 6 0 9 0 C11.19902826 3.29854238 11.26409793 4.36420456 11.31884766 8.20581055 C11.33871735 9.26668381 11.35858704 10.32755707 11.37905884 11.420578 C11.39061005 12.56440445 11.40216125 13.7082309 11.4140625 14.88671875 C11.43342865 16.05886429 11.4527948 17.23100983 11.4727478 18.43867493 C11.53260197 22.1882089 11.57895283 25.93777348 11.625 29.6875 C11.66317436 32.22722705 11.70222576 34.76694107 11.7421875 37.30664062 C11.83830835 43.53764497 11.92333885 49.76872751 12 56 C11.34 56 10.68 56 10 56 C9.99413376 55.36550934 9.98826752 54.73101868 9.98222351 54.07730103 C9.91843848 47.49133974 9.83405833 40.9058739 9.73754883 34.3203125 C9.70423234 31.86041788 9.67622164 29.40044558 9.65356445 26.94042969 C9.62014219 23.4104695 9.56783234 19.88122566 9.51171875 16.3515625 C9.50532883 15.24632233 9.4989389 14.14108215 9.49235535 13.00234985 C9.47256119 11.98144257 9.45276703 10.96053528 9.43237305 9.90869141 C9.42126999 9.00712311 9.41016693 8.10555481 9.39872742 7.17666626 C9.26714737 6.45836639 9.13556732 5.74006653 9 5 C5.5647952 2.70986347 4.014669 2.82157027 0 3 C0 2.01 0 1.02 0 0 Z " fill="#160101" transform="translate(268,345)"/>
<path d="M0 0 C1.32 0 2.64 0 4 0 C4 0.99 4 1.98 4 3 C4.66 3 5.32 3 6 3 C6.66 4.98 7.32 6.96 8 9 C8.66 9 9.32 9 10 9 C10.24867947 11.60364409 10.47457902 14.20589894 10.6875 16.8125 C10.79674805 17.91948242 10.79674805 17.91948242 10.90820312 19.04882812 C11.32786208 24.50439453 11.32786208 24.50439453 9.65625 27.03125 C8 28 8 28 5.8125 27.6875 C5.214375 27.460625 4.61625 27.23375 4 27 C3.67 25.68 3.34 24.36 3 23 C4.32 23.66 5.64 24.32 7 25 C7.44958212 15.00928623 7.00809889 7.73307464 0 0 Z " fill="#290202" transform="translate(341,95)"/>
<path d="M0 0 C1.98 0 3.96 0 6 0 C6.33 0.99 6.66 1.98 7 3 C8.65 3.33 10.3 3.66 12 4 C12 5.32 12 6.64 12 8 C7.39225306 6.50925834 4.61936507 4.10302906 1 1 C1.11854188 6.03555223 1.24280963 11.07091893 1.37231445 16.10620117 C1.41554445 17.81807647 1.45722765 19.52999157 1.49731445 21.24194336 C1.55530714 23.70699034 1.61891697 26.17183918 1.68359375 28.63671875 C1.70030624 29.39836838 1.71701874 30.16001801 1.73423767 30.94474792 C1.83917914 34.7349605 2.10392627 38.3104722 3 42 C2.01 41.34 1.02 40.68 0 40 C-0.266487 36.94924916 -0.34757146 34.10373821 -0.29296875 31.0546875 C-0.28872391 30.1696756 -0.28447906 29.2846637 -0.28010559 28.37283325 C-0.26328259 25.53991555 -0.22562425 22.70770348 -0.1875 19.875 C-0.17245782 17.95704151 -0.15876861 16.03907189 -0.14648438 14.12109375 C-0.11336727 9.41378969 -0.06156055 4.70701456 0 0 Z " fill="#270203" transform="translate(362,188)"/>
<path d="M0 0 C1.485 0.99 1.485 0.99 3 2 C5.64 2 8.28 2 11 2 C11 14.54 11 27.08 11 40 C8.36 40.66 5.72 41.32 3 42 C3 40.68 3 39.36 3 38 C5.31 38 7.62 38 10 38 C10 26.78 10 15.56 10 4 C7.03 4 4.06 4 1 4 C0.34 3.34 -0.32 2.68 -1 2 C-0.67 1.34 -0.34 0.68 0 0 Z " fill="#220101" transform="translate(255,367)"/>
<path d="M0 0 C1.32 0.33 2.64 0.66 4 1 C-1.26923369 5.41476337 -4.75227507 6.28561601 -11.484375 6.2265625 C-14.84882893 5.92355267 -17.20459024 4.86360651 -20 3 C-20.33 2.34 -20.66 1.68 -21 1 C-17 2 -17 2 -15.14453125 2.52734375 C-12.84704074 3.03371233 -10.78791787 3.13295404 -8.4375 3.125 C-7.67308594 3.12757813 -6.90867187 3.13015625 -6.12109375 3.1328125 C-3.81001505 3.07907384 -3.81001505 3.07907384 -1 2 C-0.67 1.34 -0.34 0.68 0 0 Z " fill="#A73338" transform="translate(389,233)"/>
<path d="M0 0 C0.99 0 1.98 0 3 0 C3 0.66 3 1.32 3 2 C2.34 2 1.68 2 1 2 C0.75507813 2.56847656 0.51015625 3.13695312 0.2578125 3.72265625 C-1.6815333 7.23395625 -4.53082499 9.82958072 -7.3203125 12.68359375 C-9.29713428 15.4097689 -9.42887465 16.7064626 -9 20 C-8.67 20.66 -8.34 21.32 -8 22 C-8.99 22.33 -9.98 22.66 -11 23 C-11 19.7 -11 16.4 -11 13 C-9.68 12.34 -8.36 11.68 -7 11 C-6.31246699 9.34183216 -5.64438717 7.67540664 -5 6 C-4.01 5.67 -3.02 5.34 -2 5 C-1.33820153 3.01954441 -1.33820153 3.01954441 -1 1 C-0.67 0.67 -0.34 0.34 0 0 Z " fill="#200202" transform="translate(216,347)"/>
<path d="M0 0 C0.99 0 1.98 0 3 0 C3.05402274 2.10388569 3.09280256 4.20816714 3.125 6.3125 C3.14820313 7.48425781 3.17140625 8.65601563 3.1953125 9.86328125 C3 13 3 13 1 16 C-1.625 16.1875 -1.625 16.1875 -4 16 C-4 13.03 -4 10.06 -4 7 C-3.67 7 -3.34 7 -3 7 C-3 8.98 -3 10.96 -3 13 C-2.01 12.67 -1.02 12.34 0 12 C0 8.04 0 4.08 0 0 Z " fill="#9B4146" transform="translate(244,385)"/>
<path d="M0 0 C-5.43058388 0.68959795 -10.58400028 1.08494622 -16.0546875 0.83984375 C-18.32821992 0.86885426 -18.32821992 0.86885426 -21 3 C-23.6875 3.125 -23.6875 3.125 -26 3 C-26 3.66 -26 4.32 -26 5 C-27.32 4.67 -28.64 4.34 -30 4 C-21.13840031 -0.74728555 -9.58018461 -5.53717092 0 0 Z " fill="#390909" transform="translate(328,110)"/>
<path d="M0 0 C0.78375 0.04125 1.5675 0.0825 2.375 0.125 C1.055 0.455 -0.265 0.785 -1.625 1.125 C-1.625 3.435 -1.625 5.745 -1.625 8.125 C5.965 8.125 13.555 8.125 21.375 8.125 C21.045 8.785 20.715 9.445 20.375 10.125 C16.58339703 10.18286668 12.79190689 10.21855054 9 10.25 C7.37964844 10.27513672 7.37964844 10.27513672 5.7265625 10.30078125 C4.6953125 10.30722656 3.6640625 10.31367188 2.6015625 10.3203125 C1.17191162 10.33602295 1.17191162 10.33602295 -0.28662109 10.35205078 C-2.625 10.125 -2.625 10.125 -4.625 8.125 C-4.875 5.125 -4.875 5.125 -4.625 2.125 C-2.625 0.125 -2.625 0.125 0 0 Z " fill="#9B353C" transform="translate(213.625,406.875)"/>
<path d="M0 0 C0.33 0 0.66 0 1 0 C1.03738281 0.69867188 1.07476562 1.39734375 1.11328125 2.1171875 C1.21189453 3.48230469 1.21189453 3.48230469 1.3125 4.875 C1.39951172 6.23238281 1.39951172 6.23238281 1.48828125 7.6171875 C1.7882039 10.36221601 1.7882039 10.36221601 5 12 C4.443125 12.226875 3.88625 12.45375 3.3125 12.6875 C0.36753316 14.35896766 -1.68156544 16.55276352 -4 19 C-5.98 17.68 -7.96 16.36 -10 15 C-6.71023192 13.90341064 -5.28696233 14.20046862 -2 15 C-0.9458482 11.83754459 -0.68724328 9.13051782 -0.4375 5.8125 C-0.35371094 4.72582031 -0.26992187 3.63914062 -0.18359375 2.51953125 C-0.12300781 1.68808594 -0.06242188 0.85664063 0 0 Z " fill="#EEBEBE" transform="translate(247,386)"/>
<path d="M0 0 C1.32 0.33 2.64 0.66 4 1 C3.34 1.66 2.68 2.32 2 3 C1.53513282 6.12196336 1.53513282 6.12196336 1.375 9.625 C1.30023438 10.81351562 1.22546875 12.00203125 1.1484375 13.2265625 C1.09945312 14.14179688 1.05046875 15.05703125 1 16 C0.01 16 -0.98 16 -2 16 C-1.85890014 13.89551062 -1.71195825 11.7914123 -1.5625 9.6875 C-1.48128906 8.51574219 -1.40007812 7.34398437 -1.31640625 6.13671875 C-1 3 -1 3 0 0 Z " fill="#FBEAE8" transform="translate(238,384)"/>
<path d="M0 0 C2.75 -0.25 2.75 -0.25 6 0 C8.375 2 8.375 2 10 4 C7.36 3.67 4.72 3.34 2 3 C2.33 5.31 2.66 7.62 3 10 C2.34 10 1.68 10 1 10 C-0.83691257 6.21812119 -1.15837626 4.05431692 0 0 Z " fill="#2C0708" transform="translate(265,86)"/>
<path d="M0 0 C0.66 0.33 1.32 0.66 2 1 C1.01 2.485 1.01 2.485 0 4 C-2.62697064 4.22137393 -5.00893964 4.28162025 -7.625 4.1875 C-8.33140625 4.17396484 -9.0378125 4.16042969 -9.765625 4.14648438 C-11.51074128 4.1111104 -13.25546608 4.05730221 -15 4 C-15 3.01 -15 2.02 -15 1 C-14.16855469 1.01160156 -13.33710938 1.02320313 -12.48046875 1.03515625 C-10.85044922 1.04869141 -10.85044922 1.04869141 -9.1875 1.0625 C-7.56908203 1.07990234 -7.56908203 1.07990234 -5.91796875 1.09765625 C-2.93487831 1.13624766 -2.93487831 1.13624766 0 0 Z " fill="#2E0708" transform="translate(388,237)"/>
<path d="M0 0 C0.99 0.33 1.98 0.66 3 1 C2.34 1 1.68 1 1 1 C1.33 1.66 1.66 2.32 2 3 C2.45845272 10.10601719 2.45845272 10.10601719 0.75 13.4375 C-1.25044298 15.2236098 -2.33882834 15.7580753 -5 16 C-7.25 15.5625 -7.25 15.5625 -9 15 C-8.67 14.01 -8.34 13.02 -8 12 C-7.05125 12.04125 -6.1025 12.0825 -5.125 12.125 C-1.89755144 12.34973818 -1.89755144 12.34973818 0 10 C0.24287489 7.55987051 0.24287489 7.55987051 0.125 4.875 C0.10695313 3.96492188 0.08890625 3.05484375 0.0703125 2.1171875 C0.04710937 1.41851562 0.02390625 0.71984375 0 0 Z " fill="#A82D34" transform="translate(299,90)"/>
<path d="M0 0 C5.62541841 0.45003347 8.61487125 1.68441485 13 5 C10 6 10 6 7.95703125 5.22265625 C5.97135417 4.1484375 3.98567708 3.07421875 2 2 C2.33 4.97 2.66 7.94 3 11 C1.04783565 7.09567131 0.49360009 4.27786748 0 0 Z " fill="#963336" transform="translate(327,89)"/>
<path d="M0 0 C0.99 0 1.98 0 3 0 C1.34627709 3.90879961 -1.30176354 6.76211625 -4 10 C-5.27852287 12.21587348 -5.27852287 12.21587348 -6 14 C-6.6875 12.3125 -6.6875 12.3125 -7 10 C-5.6875 7.25 -5.6875 7.25 -4 5 C-3.34 5 -2.68 5 -2 5 C-2 4.01 -2 3.02 -2 2 C-1.34 2 -0.68 2 0 2 C0 1.34 0 0.68 0 0 Z " fill="#1E0302" transform="translate(260,353)"/>
<path d="M0 0 C0.66 0 1.32 0 2 0 C2.24867947 2.60364409 2.47457902 5.20589894 2.6875 7.8125 C2.79674805 8.91948242 2.79674805 8.91948242 2.90820312 10.04882812 C3.32786208 15.50439453 3.32786208 15.50439453 1.65625 18.03125 C0 19 0 19 -2.1875 18.6875 C-2.785625 18.460625 -3.38375 18.23375 -4 18 C-4.33 16.68 -4.66 15.36 -5 14 C-3.02 14.99 -1.04 15.98 1 17 C0.67 11.39 0.34 5.78 0 0 Z " fill="#180305" transform="translate(349,104)"/>
<path d="M0 0 C0.66 0 1.32 0 2 0 C1.690625 0.598125 1.38125 1.19625 1.0625 1.8125 C-0.10209704 4.08956772 -0.10209704 4.08956772 -1 7 C0.98 7 2.96 7 5 7 C4.67 7.99 4.34 8.98 4 10 C2.02 10 0.04 10 -2 10 C-2.25 3.375 -2.25 3.375 0 0 Z " fill="#A92D35" transform="translate(210,360)"/>
<path d="M0 0 C0.99 0 1.98 0 3 0 C3 2.97 3 5.94 3 9 C2.01 9.33 1.02 9.66 0 10 C0 6.7 0 3.4 0 0 Z " fill="#F5C9C9" transform="translate(242,388)"/>
<path d="M0 0 C3.875 0.875 3.875 0.875 5 2 C7.95817107 2.25005386 7.95817107 2.25005386 11 2 C11.66 1.34 12.32 0.68 13 0 C13.33 1.32 13.66 2.64 14 4 C9.71 4 5.42 4 1 4 C0.67 2.68 0.34 1.36 0 0 Z " fill="#A02C31" transform="translate(316,100)"/>
<path d="M0 0 C0.94875 0.04125 1.8975 0.0825 2.875 0.125 C2.875 0.785 2.875 1.445 2.875 2.125 C1.225 2.455 -0.425 2.785 -2.125 3.125 C-2.455 5.105 -2.785 7.085 -3.125 9.125 C-3.785 9.125 -4.445 9.125 -5.125 9.125 C-5.25 5.75 -5.25 5.75 -5.125 2.125 C-3.125 0.125 -3.125 0.125 0 0 Z " fill="#962F35" transform="translate(263.125,406.875)"/>
<path d="M0 0 C5.625 1.125 5.625 1.125 8 4 C7.01 4.33 6.02 4.66 5 5 C4.01 4.01 3.02 3.02 2 2 C2 5.3 2 8.6 2 12 C1.34 12 0.68 12 0 12 C0 8.04 0 4.08 0 0 Z " fill="#B62C32" transform="translate(329,91)"/>
<path d="M0 0 C0.33 0 0.66 0 1 0 C1.33 1.65 1.66 3.3 2 5 C4.64 5 7.28 5 10 5 C8.22510401 7.24197388 7.37824511 7.94326323 4.5 8.375 C2 8 2 8 0.125 6.8125 C-1 5 -1 5 -0.6875 2.3125 C-0.460625 1.549375 -0.23375 0.78625 0 0 Z " fill="#923036" transform="translate(256,362)"/>
<path d="M0 0 C1.60101563 0.20882812 1.60101563 0.20882812 3.234375 0.421875 C4.31203125 0.55078125 5.3896875 0.6796875 6.5 0.8125 C7.72976563 0.99039063 7.72976563 0.99039063 8.984375 1.171875 C8.984375 1.501875 8.984375 1.831875 8.984375 2.171875 C7.25630182 2.51083156 5.52685526 2.84279025 3.796875 3.171875 C2.35248047 3.4503125 2.35248047 3.4503125 0.87890625 3.734375 C-1.8090456 4.14065112 -4.30333519 4.25121072 -7.015625 4.171875 C-4.72098594 1.29800667 -3.75494772 0.21401256 0 0 Z " fill="#B82B34" transform="translate(311.015625,104.828125)"/>
<path d="M0 0 C0 0.33 0 0.66 0 1 C-2.31 1.66 -4.62 2.32 -7 3 C-7.07427838 6.34252724 -7.06546953 8.8035914 -6 12 C-6.99 12 -7.98 12 -9 12 C-9 8.37 -9 4.74 -9 1 C-6.04335481 -0.4783226 -3.25770263 -0.06032783 0 0 Z " fill="#350608" transform="translate(217,406)"/>
<path d="M0 0 C2 3.75 2 3.75 2 6 C0.03533587 7.06775224 -1.96855359 8.06553465 -4 9 C-4.66 8.67 -5.32 8.34 -6 8 C-4.73046875 6.50260417 -3.4609375 5.00520833 -2.19140625 3.5078125 C-0.9121848 1.99405921 -0.9121848 1.99405921 0 0 Z " fill="#250505" transform="translate(396,228)"/>
<path d="M0 0 C0.33 0.99 0.66 1.98 1 3 C-1.64 5.97 -4.28 8.94 -7 12 C-7 8.19654123 -5.86213669 7.22298985 -3.5 4.3125 C-2.8503125 3.50425781 -2.200625 2.69601562 -1.53125 1.86328125 C-1.0259375 1.24839844 -0.520625 0.63351562 0 0 Z " fill="#2F2D2E" transform="translate(208,347)"/>
<path d="M0 0 C1.31602523 0.61754259 2.62773556 1.24428742 3.9375 1.875 C4.66839844 2.22304687 5.39929688 2.57109375 6.15234375 2.9296875 C8 4 8 4 9 6 C6.36 5.34 3.72 4.68 1 4 C0.67 2.68 0.34 1.36 0 0 Z " fill="#260303" transform="translate(335,112)"/>
<path d="M0 0 C3.3 0.33 6.6 0.66 10 1 C8.35 2.32 6.7 3.64 5 5 C3.35 3.35 1.7 1.7 0 0 Z " fill="#E4D4D4" transform="translate(237,400)"/>
<path d="M0 0 C0.99 0 1.98 0 3 0 C3 2.97 3 5.94 3 9 C2.34 9 1.68 9 1 9 C0.67 6.03 0.34 3.06 0 0 Z " fill="#99393D" transform="translate(244,385)"/>
<path d="M0 0 C-5 3 -5 3 -10 6 C-8.54794521 1.40182648 -8.54794521 1.40182648 -6.125 -0.375 C-3.6665651 -1.09806909 -2.38500154 -0.85178626 0 0 Z " fill="#B72C32" transform="translate(274,350)"/>
<path d="M0 0 C4.26086957 6.39130435 4.26086957 6.39130435 3.625 10.3125 C3.41875 10.869375 3.2125 11.42625 3 12 C0.01485372 7.89542386 -0.2954439 5.02254631 0 0 Z " fill="#2D0306" transform="translate(268,98)"/>
<path d="M0 0 C1.65 0 3.3 0 5 0 C5 0.99 5 1.98 5 3 C3.02 3.33 1.04 3.66 -1 4 C-0.67 2.68 -0.34 1.36 0 0 Z " fill="#A2515B" transform="translate(252,379)"/>
<path d="M0 0 C0.99 0.33 1.98 0.66 3 1 C1.71937515 2.7074998 0.38232443 4.37373596 -1 6 C-1.66 6 -2.32 6 -3 6 C-2.42655063 3.13275314 -2.1385485 2.1385485 0 0 Z " fill="#9E3032" transform="translate(216,351)"/>
<path d="M0 0 C1.33333333 0.33333333 2.66666667 0.66666667 4 1 C5.0828125 1.185625 5.0828125 1.185625 6.1875 1.375 C6.785625 1.58125 7.38375 1.7875 8 2 C8.33 2.99 8.66 3.98 9 5 C2.25 3.375 2.25 3.375 0 0 Z " fill="#942C34" transform="translate(368,234)"/>
<path d="M0 0 C2.64 0.33 5.28 0.66 8 1 C7.67 1.99 7.34 2.98 7 4 C3.73045798 3.43628586 2.17424117 2.50037734 0 0 Z " fill="#882E33" transform="translate(280,122)"/>
<path d="M0 0 C-1.75 3.875 -1.75 3.875 -4 5 C-4.99 4.67 -5.98 4.34 -7 4 C-7 3.34 -7 2.68 -7 2 C-2.25 0 -2.25 0 0 0 Z " fill="#B42D35" transform="translate(219,406)"/>
<path d="M0 0 C1.37562854 1.28965176 2.70766393 2.62689293 4 4 C4 4.66 4 5.32 4 6 C2.35 6 0.7 6 -1 6 C-0.67 4.02 -0.34 2.04 0 0 Z " fill="#313131" transform="translate(180,275)"/>
<path d="M0 0 C0.598125 0.763125 1.19625 1.52625 1.8125 2.3125 C3.46959332 4.3483575 5.10297674 6.1978279 7 8 C5.35 7.67 3.7 7.34 2 7 C2 6.01 2 5.02 2 4 C1.34 4 0.68 4 0 4 C0 2.68 0 1.36 0 0 Z " fill="#310407" transform="translate(365,230)"/>
<path d="" fill="#000000" transform="translate(0,0)"/>
<path d="" fill="#000000" transform="translate(0,0)"/>
<path d="" fill="#000000" transform="translate(0,0)"/>
<path d="" fill="#000000" transform="translate(0,0)"/>
<path d="" fill="#000000" transform="translate(0,0)"/>
<path d="" fill="#000000" transform="translate(0,0)"/>
<path d="" fill="#000000" transform="translate(0,0)"/>
<path d="" fill="#000000" transform="translate(0,0)"/>
<path d="" fill="#000000" transform="translate(0,0)"/>
<path d="" fill="#000000" transform="translate(0,0)"/>
<path d="" fill="#000000" transform="translate(0,0)"/>
<path d="" fill="#000000" transform="translate(0,0)"/>
<path d="" fill="#000000" transform="translate(0,0)"/>
<path d="" fill="#000000" transform="translate(0,0)"/>
<path d="" fill="#000000" transform="translate(0,0)"/>
<path d="" fill="#000000" transform="translate(0,0)"/>
<path d="" fill="#000000" transform="translate(0,0)"/>
<path d="" fill="#000000" transform="translate(0,0)"/>
<path d="" fill="#000000" transform="translate(0,0)"/>
<path d="" fill="#000000" transform="translate(0,0)"/>
<path d="" fill="#000000" transform="translate(0,0)"/>
<path d="" fill="#000000" transform="translate(0,0)"/>
<path d="" fill="#000000" transform="translate(0,0)"/>
</svg>
