<svg width="1200" height="630" viewBox="0 0 1200 630" fill="none" xmlns="http://www.w3.org/2000/svg">
  <!-- Dark background -->
  <rect width="1200" height="630" fill="#030712"/>

  <!-- Logo container centered -->
  <g transform="translate(500, 215)">
    <!-- Main logo scaled up (simplified version) -->
    <circle cx="100" cy="100" r="80" fill="#000000" stroke="#dc2626" stroke-width="3"/>
    <circle cx="100" cy="80" r="12" fill="#ffffff"/>
    <circle cx="100" cy="80" r="6" fill="#000000"/>
    <!-- Comb -->
    <path d="M60 40 C60 20, 70 20, 75 40 C75 20, 85 20, 90 40 C90 20, 100 20, 105 40 C105 20, 115 20, 120 40 C120 20, 130 20, 140 40 L140 60 L60 60 Z" fill="#dc2626"/>
    <!-- Wattle -->
    <ellipse cx="150" cy="100" rx="20" ry="30" fill="#dc2626"/>
    <!-- "1of1" text -->
    <text x="100" y="160" text-anchor="middle" fill="#dc2626" font-size="24" font-weight="bold">1of1</text>
  </g>

  <!-- Text content -->
  <text x="600" y="400" text-anchor="middle" fill="#ffffff" font-size="48" font-weight="bold">Chicken1of1</text>
  <text x="600" y="450" text-anchor="middle" fill="#dc2626" font-size="32" font-weight="600">UFC Sports Cards &amp; Live Breaks</text>
  <text x="600" y="500" text-anchor="middle" fill="#9ca3af" font-size="24">Bauk Bauk Baby</text>
</svg>